<mxfile host="app.diagrams.net" agent="Mozilla/5.0 (Windows NT 10.0; Win64; x64) AppleWebKit/537.36 (KHTML, like Gecko) Chrome/131.0.0.0 Safari/537.36 Edg/131.0.0.0" version="24.8.8">
  <diagram name="Page-1" id="y-R9nfhZsGsshj7VJkBZ">
    <mxGraphModel dx="1042" dy="565" grid="1" gridSize="10" guides="1" tooltips="1" connect="1" arrows="1" fold="1" page="1" pageScale="1" pageWidth="850" pageHeight="1100" math="0" shadow="0">
      <root>
        <mxCell id="0" />
        <mxCell id="1" parent="0" />
        <mxCell id="_LuGVpHj-Nbz4-XBs6MX-3" value="" style="edgeStyle=orthogonalEdgeStyle;rounded=0;orthogonalLoop=1;jettySize=auto;html=1;" edge="1" parent="1" source="_LuGVpHj-Nbz4-XBs6MX-1" target="_LuGVpHj-Nbz4-XBs6MX-2">
          <mxGeometry relative="1" as="geometry" />
        </mxCell>
        <mxCell id="_LuGVpHj-Nbz4-XBs6MX-1" value="start" style="strokeWidth=2;html=1;shape=mxgraph.flowchart.start_1;whiteSpace=wrap;" vertex="1" parent="1">
          <mxGeometry x="375" y="30" width="100" height="60" as="geometry" />
        </mxCell>
        <mxCell id="_LuGVpHj-Nbz4-XBs6MX-5" value="" style="edgeStyle=orthogonalEdgeStyle;rounded=0;orthogonalLoop=1;jettySize=auto;html=1;" edge="1" parent="1" source="_LuGVpHj-Nbz4-XBs6MX-2" target="_LuGVpHj-Nbz4-XBs6MX-4">
          <mxGeometry relative="1" as="geometry" />
        </mxCell>
        <mxCell id="_LuGVpHj-Nbz4-XBs6MX-2" value="แสดงผล&amp;nbsp;&lt;span style=&quot;font-family: Consolas, &amp;quot;Courier New&amp;quot;, monospace; font-size: 14px; white-space: pre; background-color: rgb(255, 255, 255);&quot;&gt;Hello, I&#39;m Javis (RMUTL-Version).&lt;/span&gt;" style="shape=parallelogram;perimeter=parallelogramPerimeter;whiteSpace=wrap;html=1;fixedSize=1;strokeWidth=2;" vertex="1" parent="1">
          <mxGeometry x="248" y="130" width="355" height="50" as="geometry" />
        </mxCell>
        <mxCell id="_LuGVpHj-Nbz4-XBs6MX-7" value="" style="edgeStyle=orthogonalEdgeStyle;rounded=0;orthogonalLoop=1;jettySize=auto;html=1;" edge="1" parent="1" source="_LuGVpHj-Nbz4-XBs6MX-4" target="_LuGVpHj-Nbz4-XBs6MX-6">
          <mxGeometry relative="1" as="geometry" />
        </mxCell>
        <mxCell id="_LuGVpHj-Nbz4-XBs6MX-4" value="&lt;span style=&quot;background-color: rgb(255, 255, 255);&quot;&gt;แสดงผล&amp;nbsp;&lt;span style=&quot;font-family: Consolas, &amp;quot;Courier New&amp;quot;, monospace; font-size: 14px; white-space: pre;&quot;&gt;This is my first time to coding with C language.&lt;/span&gt;&lt;/span&gt;" style="shape=parallelogram;perimeter=parallelogramPerimeter;whiteSpace=wrap;html=1;fixedSize=1;strokeWidth=2;" vertex="1" parent="1">
          <mxGeometry x="198.25" y="220" width="454.5" height="60" as="geometry" />
        </mxCell>
        <mxCell id="_LuGVpHj-Nbz4-XBs6MX-9" value="" style="edgeStyle=orthogonalEdgeStyle;rounded=0;orthogonalLoop=1;jettySize=auto;html=1;" edge="1" parent="1" source="_LuGVpHj-Nbz4-XBs6MX-6" target="_LuGVpHj-Nbz4-XBs6MX-8">
          <mxGeometry relative="1" as="geometry" />
        </mxCell>
        <mxCell id="_LuGVpHj-Nbz4-XBs6MX-6" value="แสดงผล&amp;nbsp;&lt;span style=&quot;font-family: Consolas, &amp;quot;Courier New&amp;quot;, monospace; font-size: 14px; white-space: pre;&quot;&gt;Today is my birthday.&lt;/span&gt;" style="shape=parallelogram;perimeter=parallelogramPerimeter;whiteSpace=wrap;html=1;fixedSize=1;strokeWidth=2;" vertex="1" parent="1">
          <mxGeometry x="288" y="310" width="274.5" height="60" as="geometry" />
        </mxCell>
        <mxCell id="_LuGVpHj-Nbz4-XBs6MX-8" value="end" style="strokeWidth=2;html=1;shape=mxgraph.flowchart.start_1;whiteSpace=wrap;" vertex="1" parent="1">
          <mxGeometry x="375" y="410" width="100" height="60" as="geometry" />
        </mxCell>
      </root>
    </mxGraphModel>
  </diagram>
</mxfile>
